<svg xmlns="http://www.w3.org/2000/svg" viewBox="0 0 1200 675"><rect width="1200" height="675" fill="#fff"/><style>text{font-family:Arial,sans-serif;fill:#111}.t{font-size:42px;font-weight:700}.s{font-size:22px;fill:#667085}.h{font-size:25px;font-weight:700}.b{font-size:21px;fill:#475467}</style><text x="70" y="85" class="t">Research Objective</text><text x="70" y="125" class="s">From passive sensing to individualized PHQ-9 change monitoring</text><rect x="70" y="200" width="300" height="300" rx="24" fill="#eff6ff" stroke="#93c5fd"/><text x="105" y="255" class="h">1. Passive sensing</text><text x="105" y="310" class="b">Mobility</text><text x="105" y="350" class="b">Communication</text><text x="105" y="390" class="b">Device activity</text><text x="105" y="445" class="b">Daily ordered records</text><path d="M390 350H485" stroke="#2563eb" stroke-width="8"/><path d="M475 335l25 15-25 15" fill="#2563eb"/><rect x="500" y="200" width="300" height="300" rx="24" fill="#f5f3ff" stroke="#c4b5fd"/><text x="535" y="255" class="h">2. Within-person</text><text x="535" y="295" class="h">baseline</text><text x="535" y="350" class="b">Habitual pattern</text><text x="535" y="390" class="b">Anomaly windows</text><text x="535" y="430" class="b">Participant heterogeneity</text><path d="M820 350H915" stroke="#2563eb" stroke-width="8"/><path d="M905 335l25 15-25 15" fill="#2563eb"/><rect x="930" y="200" width="200" height="300" rx="24" fill="#ecfdf3" stroke="#86efac"/><text x="965" y="255" class="h">3. PHQ-9</text><text x="965" y="310" class="b">Subsequent</text><text x="965" y="350" class="b">score change</text><text x="965" y="410" class="b">Temporal</text><text x="965" y="450" class="b">association</text><text x="70" y="600" class="s">Core question: Do individualized behavioral anomalies precede subsequent PHQ-9 change?</text></svg>